<?xml version="1.0" encoding="UTF-8"?>
<svg width="752pt" height="752pt" version="1.1" viewBox="0 0 752 752" xmlns="http://www.w3.org/2000/svg">
 <g>
  <path d="m338.61 388.43c-1.3086-3.8711-5.5039-5.9453-9.375-4.6406l-56.18 18.973-6.8359-20.555c-1.293-3.8789-5.4844-5.9727-9.3594-4.6797l-28.113 9.3398c-1.8633 0.62109-3.4023 1.9531-4.2812 3.7109-0.87891 1.7539-1.0234 3.7891-0.40234 5.6484l6.9023 20.719-14.059 4.7344-6.918-20.809v0.003906c-1.2852-3.8789-5.4727-5.9766-9.3516-4.6914l-28.117 9.3477h-0.003906c-1.8633 0.61719-3.4023 1.9531-4.2812 3.707-0.87891 1.7578-1.0234 3.7891-0.40234 5.6523l7.0742 21.043-14.059 4.7422v0.003906c-3.4414 1.1523-5.5352 4.6328-4.9453 8.2148 0.58594 3.5781 3.6836 6.2031 7.3125 6.1992 0.80469 0 1.6016-0.13281 2.3594-0.39453l20.441-6.9258c0.20312-0.019532 0.40625-0.050782 0.60547-0.09375l28.117-9.3398c0.375-0.16797 0.73438-0.375 1.0664-0.61328l24.758-8.3633h0.003906c0.76953-0.003907 1.5352-0.12891 2.2695-0.36719l28.117-9.3477h0.003906c0.83203-0.29297 1.6016-0.73438 2.2773-1.3008l60.812-20.543c3.8359-1.3398 5.875-5.5273 4.5625-9.375z"/>
  <path d="m369.68 509.2h45.527l10.762-29.598h-52.25z"/>
  <path d="m516.6 442.6c0 4.0859-3.3164 7.4023-7.4023 7.4023-4.0859 0-7.3984-3.3164-7.3984-7.4023 0-4.0859 3.3125-7.3984 7.3984-7.3984 4.0859 0 7.4023 3.3125 7.4023 7.3984"/>
  <path d="m375.73 464.8h55.625l37.68-103.59h-79.18z"/>
  <path d="m512.02 405.6h-5.6523l2.8242 5.6523z"/>
  <path d="m327.03 405.6h-5.6562l2.8281 5.6523z"/>
  <path d="m331.6 442.6c0 4.0859-3.3125 7.4023-7.3984 7.4023s-7.3984-3.3164-7.3984-7.4023c0-4.0859 3.3125-7.3984 7.3984-7.3984s7.3984 3.3125 7.3984 7.3984"/>
  <path d="m575.28 331.6h-66.082v-14.797h37.738l-39.109-14.801h-279.82c-2.6484 0.003906-5.0977-1.4062-6.4219-3.6992l-27.469-48.098h-25.309v78.348l17.762 17.848h78.438c1.9609 0 3.8438 0.78125 5.2305 2.168l42.23 42.23h58.414l5.1797-37.996c0.5-3.6719 3.6328-6.4062 7.3398-6.4023h96.195c2.4141 0 4.6719 1.1758 6.0586 3.1523 1.3828 1.9766 1.7188 4.5039 0.89844 6.7695l-12.531 34.477h72.613c9.207 0.015625 18.082-3.4492 24.84-9.6992 6.7617-6.25 10.906-14.824 11.613-24.004 0.70312-9.1797-2.0859-18.285-7.8125-25.496zm-258.47 0h-111v-14.797h111zm29.598 0h-14.801v-14.797h14.801zm29.598 0h-14.797v-14.797h14.801zm29.598 0h-14.797v-14.797h14.801zm29.598 0h-14.797v-14.797h14.801zm29.598 0h-14.793v-14.797h14.801zm29.598 0h-14.793v-14.797h14.801z"/>
 </g>
</svg>
