<?xml version="1.0" encoding="UTF-8"?>
<svg width="752pt" height="752pt" version="1.1" viewBox="0 0 752 752" xmlns="http://www.w3.org/2000/svg">
 <path d="m594.31 400.05-26.691-32.488-50.516-108.87c0.054687-0.75391 0.09375-1.5156 0.09375-2.2852 0-17.355-14.117-31.477-31.477-31.477-15.141 0-27.816 10.75-30.809 25.016l-41.441 36.973-20.996-42.609c-6.4922-13.176-19.137-21.039-33.82-21.039l-55.336 0.003907c-17.277 0-31.336 14.055-31.336 31.336v71.621l-60.98-0.003907v-23.949c0-6.4688-4.5938-11.875-10.684-13.148v-21.445c0-3.0977-1.9688-5.8594-4.9023-6.8672l-25.035-8.5938c-3.7891-1.3008-7.918 0.71484-9.2188 4.5078-1.3008 3.793 0.71484 7.918 4.5078 9.2188l20.137 6.9102v16.266c-6.0938 1.2734-10.684 6.6836-10.684 13.148v24.492c-6.7109 1.7812-11.676 7.8867-11.676 15.156v39c-7.2656 2.8945-12.418 10.004-12.418 18.289 0 10.848 8.8242 19.68 19.68 19.68h33.715v8.5703c-24.645 3.5312-43.648 24.773-43.648 50.383 0 28.07 22.836 50.91 50.91 50.91l174.87-0.003906c28.07 0 50.91-22.836 50.91-50.91 0-25.609-19.008-46.852-43.648-50.383v-8.5703h18.754c10.848 0 19.68-8.8242 19.68-19.68 0-8.2891-5.1484-15.395-12.418-18.289v-20.109l59.637-66.844 55.914 93.27-34.793 34.793-9.8867-5.3555c-3.5273-1.9102-7.9258-0.60156-9.8359 2.9258-1.9102 3.5234-0.60156 7.9258 2.9258 9.8359l54.238 30.023c5.7578 3.2109 12.047 4.7461 18.266 4.7461 12.367 0 24.477-6.0586 31.656-17.027l8.2383-12.59c7.0156-10.738 6.2617-24.621-1.8828-34.535zm-108.59-160.61c9.3516 0 16.961 7.6055 16.961 16.961 0 9.3516-7.6055 16.961-16.961 16.961-9.3516 0-16.961-7.6055-16.961-16.961 0-9.3477 7.6094-16.961 16.961-16.961zm-296.09 86.773v-22.863h6.8516v22.863zm233.32 151.62c0 20.066-16.324 36.391-36.391 36.391h-174.89c-20.066 0-36.391-16.324-36.391-36.391 0-20.066 16.324-36.391 36.391-36.391l174.89-0.003906c20.066 0 36.391 16.324 36.391 36.395zm-43.648-50.91h-160.37v-8.0469h160.37zm33.273-22.559h-241.88c-2.8477 0-5.1602-2.3125-5.1602-5.1602s2.3125-5.1602 5.1602-5.1602c4.0117 0 7.2578-3.25 7.2578-7.2578v-44.871c0-0.625 0.55078-1.1797 1.1797-1.1797h100.11c4.0117 0 7.2578-3.25 7.2578-7.2578l-0.003906-78.879c0-9.2734 7.543-16.816 16.816-16.816h55.336c9.1641 0 16.746 4.7148 20.805 12.941l25.859 52.488v83.57c0 4.0117 3.25 7.2578 7.2578 7.2578 2.8477 0 5.1602 2.3125 5.1602 5.1602 0 2.8477-2.3164 5.1641-5.1602 5.1641zm7.2148-103.63 36.684-32.727c2.5547 6.418 7.1562 11.809 13.008 15.348l-49.648 55.652v-37.48c0-0.26953-0.015625-0.53125-0.042969-0.79297zm72.535-13.551c6.8281-1.4648 12.832-5.1484 17.238-10.258l43.145 92.984-6.7422 6.7422zm91.711 139.46-8.2383 12.59c-6.6367 10.137-20.121 13.457-30.703 7.5508l-31.285-17.453 47.082-47.082 22.199 27.02c4.168 5.0664 4.5391 11.883 0.94531 17.375zm-372.36 20.957c-16.668 0-30.23 13.562-30.23 30.23s13.562 30.23 30.23 30.23l174.89-0.003906c16.668 0 30.23-13.562 30.23-30.23s-13.562-30.23-30.23-30.23zm190.6 30.234c0 8.6641-7.0508 15.719-15.719 15.719l-174.88-0.003906c-8.668 0-15.719-7.0508-15.719-15.719 0-8.6641 7.0508-15.719 15.719-15.719l174.89 0.003906c8.668 0 15.715 7.0508 15.715 15.719zm-33.426-221.88c-2.0469-4.1484-5.5703-6.3438-10.195-6.3438h-53.066c-4.0117 0-7.2578 3.25-7.2578 7.2578v43.336c0 4.0117 3.25 7.2578 7.2578 7.2578h76.977c2.5078 0 4.8398-1.293 6.1602-3.4219 1.3281-2.1328 1.457-4.7891 0.34375-7.0391zm-56.004 36.996v-28.824h43.852l14.203 28.824zm13.125 40.531c0 4.0117-3.25 7.2578-7.2578 7.2578h-13.129c-4.0117 0-7.2578-3.25-7.2578-7.2578 0-4.0039 3.25-7.2578 7.2578-7.2578h13.129c4.0117-0.003906 7.2578 3.25 7.2578 7.2578zm-35.125 144.36c0 4.6328-3.7539 8.3906-8.3906 8.3906s-8.3906-3.7539-8.3906-8.3906 3.7539-8.3906 8.3906-8.3906 8.3906 3.7539 8.3906 8.3906zm-66.645 0c0 4.6328-3.7539 8.3906-8.3906 8.3906-4.6328 0-8.3906-3.7539-8.3906-8.3906s3.7539-8.3906 8.3906-8.3906c4.6367 0 8.3906 3.7539 8.3906 8.3906zm99.965 0c0 4.6328-3.7539 8.3906-8.3906 8.3906-4.6328 0-8.3906-3.7539-8.3906-8.3906s3.7539-8.3906 8.3906-8.3906c4.6367 0 8.3906 3.7539 8.3906 8.3906zm-66.641 0c0 4.6328-3.7539 8.3906-8.3906 8.3906-4.6328 0-8.3906-3.7539-8.3906-8.3906s3.7539-8.3906 8.3906-8.3906c4.6367 0 8.3906 3.7539 8.3906 8.3906zm99.965 0c0 4.6328-3.7539 8.3906-8.3906 8.3906-4.6328 0-8.3906-3.7539-8.3906-8.3906s3.7539-8.3906 8.3906-8.3906c4.6367 0 8.3906 3.7539 8.3906 8.3906zm24.93-8.3906c4.6328 0 8.3906 3.7539 8.3906 8.3906s-3.7539 8.3906-8.3906 8.3906c-4.6328 0-8.3906-3.7539-8.3906-8.3906s3.7617-8.3906 8.3906-8.3906zm-174.15-112.79v13.641c0 4.0117-3.25 7.2578-7.2578 7.2578-4.0117 0-7.2578-3.25-7.2578-7.2578v-13.641c0-4.0117 3.25-7.2578 7.2578-7.2578 4.0078-0.003906 7.2578 3.25 7.2578 7.2578zm20.418 0v13.641c0 4.0117-3.25 7.2578-7.2578 7.2578-4.0039 0-7.2578-3.25-7.2578-7.2578v-13.641c0-4.0117 3.25-7.2578 7.2578-7.2578 4.0078 0.003907 7.2578 3.25 7.2578 7.2578zm20.414 0v13.641c0 4.0117-3.25 7.2578-7.2578 7.2578-4.0117 0-7.2578-3.25-7.2578-7.2578v-13.641c0-4.0117 3.25-7.2578 7.2578-7.2578 4.0117-0.003906 7.2578 3.25 7.2578 7.2578z" fill="#fff"/>
</svg>
