<?xml version="1.0" encoding="UTF-8"?>
<svg width="752pt" height="752pt" version="1.1" viewBox="0 0 752 752" xmlns="http://www.w3.org/2000/svg">
 <path d="m234.04 452.38c-18.059 0-32.719 14.664-32.719 32.719 0 18.059 14.664 32.715 32.719 32.715 18.059 0 32.715-14.656 32.715-32.715s-14.656-32.719-32.715-32.719zm275.41 0c-18.059 0-32.719 14.664-32.719 32.719 0 18.059 14.664 32.715 32.719 32.715 18.051 0 32.715-14.656 32.715-32.715s-14.664-32.719-32.715-32.719zm-164.71 0c-18.059 0-32.715 14.664-32.715 32.719 0 18.059 14.656 32.715 32.715 32.715 18.059 0 32.719-14.656 32.719-32.715s-14.664-32.719-32.719-32.719zm-166.23-68.676h235.98v-70.648c0-10.117 8.1992-18.32 18.32-18.32h78.355c52.242 0 94.594 42.352 94.594 94.594v62.977c0 8.582-3.4102 16.809-9.4766 22.879-6.0664 6.0664-14.297 9.4766-22.879 9.4766h-14.828c-0.23828-26.914-22.164-48.695-49.125-48.695-26.965 0-48.891 21.781-49.129 48.695h-66.453c-0.23828-26.914-22.164-48.695-49.129-48.695-26.965 0-48.887 21.781-49.125 48.695h-12.449c-0.23828-26.914-22.16-48.695-49.125-48.695-26.965 0-48.891 21.781-49.129 48.695h-6.4062c-17.812 0-32.262-14.441-32.262-32.262v-36.438c0-17.816 14.445-32.262 32.262-32.262zm393.16-0.24219c0-14.293-5.6797-28.004-15.781-38.105-10.105-10.105-23.816-15.781-38.102-15.781h-29.875c-10.117 0-18.32 8.207-18.32 18.324v35.566c0 10.117 8.1992 18.324 18.32 18.324h65.434c10.117 0 18.324-8.207 18.324-18.324zm-18.324 0c0-9.4336-3.7461-18.48-10.414-25.152-6.6719-6.668-15.719-10.414-25.148-10.414h-29.875v35.566zm-273.1-74.363v58.195h-97.777v-39.875c0-10.117 8.207-18.32 18.324-18.32zm16.41 0h79.457c10.117 0 18.32 8.1992 18.32 18.32v39.875h-97.777l0.003906-58.195zm-64.77-16.41v-39.742c0-10.117 8.207-18.32 18.324-18.32h76.473c10.117 0 18.324 8.1992 18.324 18.32v39.742z" fill-rule="evenodd"/>
</svg>
